<svg width="206" height="206" viewBox="0 0 206 206" fill="none" xmlns="http://www.w3.org/2000/svg">
<circle cx="103" cy="103" r="103" fill="#F8FF9C"/>
<g clip-path="url(#clip0_2154_2241)">
<path d="M104.08 17.1667L106.517 17.351L109.139 27.4843L113.369 17.9037L115.807 18.088L110.104 30.5703L107.759 30.386L104.08 17.1667Z" fill="black"/>
<path d="M118.52 18.7328L120.912 19.1934L118.428 31.86L116.037 31.3994L118.52 18.7328Z" fill="black"/>
<path d="M124.638 19.9764L132.824 22.5098L132.18 24.5364L126.294 22.694L125.374 25.6879L130.065 27.1618L129.421 29.1885L124.73 27.7146L123.719 30.9848L129.789 32.8733L129.145 34.9L120.775 32.2745L124.638 19.9764Z" fill="black"/>
<path d="M136.182 23.4771L138.343 24.6746L136.274 34.117L143.172 27.3001L145.011 28.3134L143.034 37.8479L149.84 30.9849L152.001 32.1364L142.436 41.5787L140.321 40.4272L142.298 31.1231L135.538 37.8018L133.469 36.6503L136.182 23.4771Z" fill="black"/>
<path d="M158.667 37.7096L162.438 41.2562C164.416 43.0986 164.416 45.4017 162.806 47.1059C161.196 48.8101 158.897 48.9022 156.966 47.0598L154.988 45.1714L151.631 48.718L149.838 47.0598L158.667 37.7096ZM158.253 45.5398C159.311 46.5071 160.369 46.2768 161.059 45.4938C161.748 44.7568 161.978 43.6514 160.921 42.6841L159.035 40.8878L156.368 43.7435L158.253 45.5398Z" fill="black"/>
<path d="M163.588 62.3058L162.117 60.4174L164.416 58.2065C165.152 57.5156 165.244 56.5483 164.692 55.8113L162.991 53.6004L159.174 56.5483L157.656 54.6138L167.819 46.6914L171.038 50.8829C172.694 53.0017 172.372 55.2586 170.532 56.6865C169.475 57.5156 168.371 57.5156 167.267 57.0089C167.359 58.0683 166.945 59.0816 166.072 59.8646L163.588 62.3058ZM164.646 52.3108L166.302 54.4756C167.175 55.6271 168.279 55.4889 169.107 54.8901C169.935 54.2453 170.256 53.232 169.383 52.0805L167.727 49.9156L164.646 52.3108Z" fill="black"/>
<path d="M169.933 60.0489C173.29 58.2526 177.061 59.4041 178.808 62.7204C180.556 66.0368 179.406 69.7677 176.049 71.564C172.692 73.3604 168.921 72.2089 167.174 68.9386C165.426 65.6222 166.576 61.8453 169.933 60.0489ZM174.9 69.3992C177.153 68.2016 178.073 65.7604 176.969 63.6877C175.865 61.615 173.382 61.0162 171.083 62.2138C168.783 63.4113 167.956 65.8525 169.059 67.8792C170.163 69.998 172.646 70.5968 174.9 69.3992Z" fill="black"/>
<path d="M172.784 75.6634C173.106 76.5385 173.704 76.6306 174.761 76.2621L183.315 73.084L184.143 75.387L175.497 78.6112C173.152 79.4864 171.634 78.7494 170.945 76.8609L170.301 75.1106L172.278 74.3737L172.784 75.6634Z" fill="black"/>
<path d="M185.34 78.7953L187.364 87.1322L185.34 87.6389L183.915 81.651L180.88 82.388L182.029 87.1783L180.006 87.6849L178.856 82.8946L175.499 83.7237L176.971 89.8958L174.901 90.4025L172.832 81.8813L185.34 78.7953Z" fill="black"/>
<path d="M181.521 90.5868C185.89 90.2183 188.327 93.0741 188.603 96.4365C188.833 99.5225 187.223 102.056 184.602 102.609L184.418 100.075C185.798 99.7989 186.671 98.3249 186.533 96.6207C186.349 94.3637 184.648 92.7977 181.751 93.0741C178.854 93.3504 177.428 95.1468 177.612 97.3577C177.75 99.108 178.854 100.398 180.233 100.49L180.417 102.931C177.75 102.885 175.727 100.674 175.497 97.5419C175.175 94.0413 177.152 90.9092 181.521 90.5868Z" fill="black"/>
<path d="M186.444 108.182L186.72 104.267L188.789 104.405L188.007 114.584L185.938 114.446L186.214 110.577L175.453 109.748L175.637 107.307L186.444 108.182Z" fill="black"/>
<path d="M178.304 144.385L176.971 146.458L166.808 143.971L173.246 152.262L171.912 154.288L163.635 143.372L164.922 141.391L178.304 144.385Z" fill="black"/>
<path d="M170.117 156.361L168.553 158.249L158.574 150.051L160.138 148.162L170.117 156.361Z" fill="black"/>
<path d="M166.117 161.197L160.001 167.231L158.529 165.757L162.898 161.427L160.691 159.216L157.196 162.671L155.724 161.197L159.219 157.743L156.828 155.301L152.321 159.769L150.85 158.249L157.104 152.077L166.117 161.197Z" fill="black"/>
<path d="M157.61 169.718L155.541 171.054L148.229 164.744L150.988 174.048L149.241 175.2L141.791 168.981L144.642 178.24L142.619 179.575L138.756 166.678L140.733 165.343L148.045 171.469L145.332 162.349L147.309 161.059L157.61 169.718Z" fill="black"/>
<path d="M134.479 182.892L129.558 184.55C127.029 185.425 124.96 184.365 124.224 182.109C123.488 179.898 124.454 177.825 127.029 176.95L129.604 176.075L128.041 171.423L130.34 170.64L134.479 182.892ZM127.811 178.884C126.431 179.345 126.201 180.404 126.523 181.372C126.845 182.339 127.719 183.03 129.053 182.569L131.536 181.74L130.294 178.055L127.811 178.884Z" fill="black"/>
<path d="M110.518 175.614L112.909 175.2L113.737 178.286C113.967 179.253 114.794 179.806 115.714 179.667L118.473 179.207L117.691 174.416L120.083 174.002L122.198 186.715L116.956 187.59C114.288 188.05 112.495 186.669 112.081 184.366C111.851 183.076 112.357 182.062 113.323 181.326C112.357 180.911 111.621 180.082 111.345 178.93L110.518 175.614ZM118.795 181.233L116.128 181.694C114.702 181.924 114.288 182.938 114.472 183.951C114.656 184.964 115.392 185.747 116.772 185.517L119.439 185.056L118.795 181.233Z" fill="black"/>
<path d="M109.417 182.339C109.371 186.116 106.566 188.879 102.795 188.833C99.0701 188.787 96.3569 185.932 96.4029 182.155C96.4489 178.378 99.2541 175.614 102.979 175.66C106.75 175.706 109.463 178.562 109.417 182.339ZM98.8862 182.201C98.8402 184.78 100.542 186.715 102.887 186.761C105.232 186.807 106.98 184.918 107.026 182.339C107.072 179.759 105.37 177.825 103.071 177.779C100.634 177.733 98.9322 179.621 98.8862 182.201Z" fill="black"/>
<path d="M94.3808 177.411C93.461 177.272 93.0931 177.779 92.9552 178.884L91.7136 187.912L89.3223 187.59L90.5639 178.47C90.8858 175.983 92.2654 174.969 94.2428 175.246L96.0823 175.476L95.8063 177.595L94.3808 177.411Z" fill="black"/>
<path d="M85.7326 187.037L77.4551 184.872L77.9609 182.846L83.8932 184.365L84.6749 181.326L79.8923 180.082L80.3982 178.055L85.1808 179.299L86.0545 175.983L79.8923 174.416L80.3982 172.344L88.9057 174.555L85.7326 187.037Z" fill="black"/>
<path d="M77.1804 178.101C75.4329 182.109 71.8 182.938 68.7189 181.602C65.8678 180.358 64.4422 177.733 65.178 175.154L67.5233 176.167C67.1094 177.549 67.9831 178.977 69.5927 179.668C71.662 180.543 73.8234 179.806 74.9731 177.134C76.1227 174.463 75.203 172.344 73.1336 171.469C71.5241 170.778 69.8686 171.1 69.1328 172.298L66.9255 171.331C68.2131 168.982 71.1102 168.245 74.0073 169.534C77.0884 170.87 78.9279 174.094 77.1804 178.101Z" fill="black"/>
<path d="M59.2927 174.14L62.5577 176.259L61.408 178.009L52.8086 172.482L53.9582 170.732L57.2233 172.804L63.0175 163.684L65.0409 164.974L59.2927 174.14Z" fill="black"/>
<path d="M31.2854 149.912L30.0897 147.794L37.0337 139.963L26.7328 141.76L25.5371 139.641L39.0571 137.476L40.2067 139.549L31.2854 149.912Z" fill="black"/>
<path d="M24.6189 137.016L23.6992 134.759L35.5637 129.784L36.4834 132.041L24.6189 137.016Z" fill="black"/>
<path d="M22.2713 131.212L19.834 122.967L21.8574 122.368L23.6049 128.264L26.594 127.389L25.2144 122.645L27.2378 122.046L28.6174 126.79L31.9284 125.823L30.1349 119.743L32.1583 119.144L34.6416 127.573L22.2713 131.212Z" fill="black"/>
<path d="M18.7775 119.651L18.5476 117.21L27.5609 113.709L18.0417 111.728L17.8578 109.656L26.8711 106.017L17.3979 104.174L17.168 101.733L30.32 104.405L30.55 106.8L21.7206 110.347L31.0098 112.281L31.2398 114.63L18.7775 119.651Z" fill="black"/>
<path d="M18.0859 93.0282L18.9597 87.9155C19.4195 85.244 21.305 83.9543 23.6043 84.3228C25.9036 84.6913 27.2832 86.5797 26.8233 89.2052L26.3635 91.8767L31.192 92.7058L30.7781 95.1009L18.0859 93.0282ZM24.7999 89.0209C25.0299 87.5931 24.2481 86.8561 23.1904 86.7179C22.1787 86.5337 21.167 86.9943 20.9371 88.3761L20.5232 90.9555L24.3861 91.6003L24.7999 89.0209Z" fill="black"/>
<path d="M35.7918 75.295L35.01 77.598L31.9289 76.9071C30.9632 76.6768 30.0895 77.0913 29.8135 78.0125L28.9398 80.638L33.5384 82.1579L32.7567 84.461L20.5703 80.3616L22.2718 75.341C23.1455 72.8077 25.1689 71.7944 27.3763 72.5774C28.6179 72.9919 29.2617 73.9132 29.4457 75.1107C30.2274 74.4659 31.3311 74.1895 32.4808 74.5119L35.7918 75.295ZM26.9164 79.9471L27.7902 77.3677C28.25 75.9859 27.5602 75.1568 26.5485 74.8344C25.5828 74.5119 24.5251 74.7883 24.0653 76.124L23.1915 78.7034L26.9164 79.9471Z" fill="black"/>
<path d="M30.4124 71.1955C27.0554 69.3992 25.9057 65.6223 27.6992 62.3059C29.4927 59.0356 33.2635 57.9302 36.5745 59.7265C39.9315 61.5229 41.0812 65.2998 39.2877 68.5701C37.5402 71.8864 33.7694 72.9919 30.4124 71.1955ZM35.4249 61.8914C33.1716 60.6477 30.6423 61.2465 29.5386 63.3192C28.435 65.3919 29.3087 67.7871 31.562 69.0307C33.8154 70.2743 36.2986 69.6295 37.4023 67.6028C38.5519 65.5301 37.6782 63.135 35.4249 61.8914Z" fill="black"/>
<path d="M41.815 60.1871C42.3668 59.4501 42.0909 58.8974 41.2172 58.2065L33.8594 52.8635L35.2849 50.8829L42.6887 56.318C44.7121 57.792 44.9421 59.4501 43.7924 61.1083L42.6887 62.5822L40.9872 61.3386L41.815 60.1871Z" fill="black"/>
<path d="M37.4492 48.0271L43.2435 41.7168L44.807 43.1447L40.6223 47.6586L42.9216 49.7773L46.2786 46.1386L47.8421 47.5665L44.4851 51.2052L47.0144 53.5543L51.2911 48.9022L52.8546 50.3301L46.9224 56.7785L37.4492 48.0271Z" fill="black"/>
<path d="M49.3118 44.6647C46.5986 41.2101 47.5643 37.6174 50.2315 35.5447C52.6688 33.6102 55.6579 33.5641 57.5893 35.4526L55.6119 37.0187C54.6002 36.0053 52.8987 36.0975 51.5651 37.2029C49.8177 38.5847 49.4498 40.8877 51.2892 43.1907C53.1287 45.4937 55.382 45.6319 57.1295 44.2501C58.5091 43.1447 58.9689 41.5326 58.2791 40.2889L60.1646 38.7689C61.6361 41.0259 60.9003 43.9277 58.4171 45.9083C55.7499 47.981 52.025 48.1192 49.3118 44.6647Z" fill="black"/>
<path d="M61.2233 30.7546L57.8203 32.6892L56.8086 30.8467L65.6839 25.8262L66.6956 27.6686L63.2927 29.5571L68.5811 38.9534L66.4657 40.1509L61.2233 30.7546Z" fill="black"/>
<circle cx="178.533" cy="127.033" r="3.43333" fill="#479172"/>
<circle cx="85.8337" cy="25.75" r="3.43333" fill="#479172"/>
<circle cx="48.0661" cy="157.933" r="3.43333" fill="#479172"/>
</g>
<path d="M88.8382 121.208L113.459 96.5869L113.459 119.205L119.185 119.185V86.8153H86.8151L86.8151 92.5204L109.413 92.5407L84.792 117.162L88.8382 121.208Z" fill="black"/>
<defs>
<clipPath id="clip0_2154_2241">
<rect width="171.667" height="171.667" fill="white" transform="translate(17.166 17.1666)"/>
</clipPath>
</defs>
</svg>
